<svg height='100px' width='100px'  fill="#000000" xmlns="http://www.w3.org/2000/svg" xmlns:xlink="http://www.w3.org/1999/xlink" version="1.1" x="0px" y="0px" viewBox="0 0 200 200" enable-background="new 0 0 200 200" xml:space="preserve"><g><path fill="#000000" d="M33.334,171.501c-1.015,0-2.008-0.386-2.764-1.108c-1.057-1.01-1.479-2.516-1.1-3.927l8.906-33.235   C32.891,123.072,30,111.62,30,100c0-38.598,31.402-70,70-70c38.598,0,70,31.402,70,70s-31.402,70-70,70   c-11.867,0-23.53-3.008-33.847-8.715l-31.61,10.028C34.146,171.439,33.738,171.501,33.334,171.501z M66.612,152.943   c0.706,0,1.406,0.187,2.027,0.552C78.107,159.059,88.952,162,100,162c34.187,0,62-27.813,62-62s-27.813-62-62-62   c-34.187,0-62,27.813-62,62c0,10.789,2.812,21.411,8.131,30.719c0.523,0.915,0.664,2.001,0.391,3.02l-7.434,27.74l26.314-8.348   C65.798,153.005,66.206,152.943,66.612,152.943z"></path><path fill="#000000" d="M100,138c-2.209,0-4-1.791-4-4V94.28c0-2.209,1.791-4,4-4s4,1.791,4,4V134C104,136.209,102.209,138,100,138   z"></path><path fill="#000000" d="M100.001,79.782c-4.495,0-8.151-3.658-8.151-8.153c0-4.493,3.657-8.149,8.151-8.149   c4.494,0,8.15,3.656,8.15,8.149C108.151,76.124,104.495,79.782,100.001,79.782z M100.001,68.782c-1.571,0-2.85,1.276-2.85,2.847   c0,1.572,1.278,2.851,2.85,2.851c1.57,0,2.848-1.278,2.848-2.851C102.849,70.059,101.571,68.782,100.001,68.782z"></path></g></svg>