<svg xmlns="http://www.w3.org/2000/svg" xmlns:xlink="http://www.w3.org/1999/xlink" version="1.1" x="0px" y="0px" viewBox="0 0 66 82.5" enable-background="new 0 0 66 66" xml:space="preserve"><g><path d="M61.6089,28.8292h-10.791V2.0001c0-0.3682-0.2021-0.7061-0.5254-0.8799c-0.3232-0.1748-0.7178-0.1562-1.0244,0.0439   L45.272,3.7931l-3.9971-2.6289c-0.334-0.2187-0.7656-0.2187-1.0996,0l-3.9961,2.6289l-3.9873-2.6279   c-0.334-0.2207-0.7666-0.2197-1.1006-0.001l-3.9951,2.6289l-3.9873-2.6279c-0.334-0.2207-0.7666-0.2197-1.1006-0.001   l-3.9961,2.6289l-3.9873-2.6279c-0.334-0.2207-0.7666-0.2197-1.1006-0.001L8.9292,3.7931L4.9419,1.1651   C4.6323,0.962,4.2397,0.9464,3.9165,1.1192C3.5933,1.294,3.3911,1.6319,3.3911,2.0001v56.1055   c0,3.8018,3.0938,6.8945,6.8955,6.8945h45.4268c0.0078,0,0.0156,0,0.0195,0c0.0023,0,0.0042-0.0013,0.0065-0.0013   c3.7897-0.0143,6.8694-3.1002,6.8694-6.8932V29.8292C62.6089,29.2765,62.1616,28.8292,61.6089,28.8292z M50.8618,63.0001H10.2866   c-2.6992,0-4.8955-2.1953-4.8955-4.8945V3.8565l2.9863,1.9687C8.7114,6.046,9.144,6.045,9.478,5.8263l3.9951-2.6289l3.9873,2.6279   c0.334,0.2207,0.7666,0.2197,1.1006,0.001l3.9961-2.6289l3.9873,2.6279c0.334,0.2207,0.7666,0.2197,1.1006,0.001l3.9951-2.6289   l3.9873,2.6279c0.334,0.2207,0.7666,0.2197,1.1006,0.001l3.9971-2.6289l3.9971,2.6289c0.334,0.2188,0.7656,0.2188,1.0996,0   l2.9961-1.9717v25.9746v28.2764C48.8179,60.1592,49.5798,61.6201,50.8618,63.0001z M60.6089,58.1056   c0,2.6992-2.1963,4.8945-4.8955,4.8945s-4.8955-2.1953-4.8955-4.8945V30.8292h9.791V58.1056z"/><path d="M45.1021,9.3673H9.1069c-0.2764,0-0.5,0.2236-0.5,0.5v11.9834c0,0.2764,0.2236,0.5,0.5,0.5h35.9951   c0.2764,0,0.5-0.2236,0.5-0.5V9.8673C45.6021,9.5909,45.3784,9.3673,45.1021,9.3673z M44.6021,21.3507H9.6069V10.3673h34.9951   V21.3507z"/><path d="M45.1021,30.7413H9.1069c-0.2764,0-0.5,0.2236-0.5,0.5s0.2236,0.5,0.5,0.5h35.9951c0.2764,0,0.5-0.2236,0.5-0.5   S45.3784,30.7413,45.1021,30.7413z"/><path d="M45.1021,44.7677h-17.252c-0.2764,0-0.5,0.2236-0.5,0.5s0.2236,0.5,0.5,0.5h17.252c0.2764,0,0.5-0.2236,0.5-0.5   S45.3784,44.7677,45.1021,44.7677z"/><path d="M45.1021,35.42h-17.252c-0.2764,0-0.5,0.2236-0.5,0.5s0.2236,0.5,0.5,0.5h17.252c0.2764,0,0.5-0.2236,0.5-0.5   S45.3784,35.42,45.1021,35.42z"/><path d="M45.1021,49.4366h-17.252c-0.2764,0-0.5,0.2236-0.5,0.5s0.2236,0.5,0.5,0.5h17.252c0.2764,0,0.5-0.2236,0.5-0.5   S45.3784,49.4366,45.1021,49.4366z"/><path d="M45.1021,40.089h-17.252c-0.2764,0-0.5,0.2236-0.5,0.5s0.2236,0.5,0.5,0.5h17.252c0.2764,0,0.5-0.2236,0.5-0.5   S45.3784,40.089,45.1021,40.089z"/><path d="M45.1021,54.1153h-17.252c-0.2764,0-0.5,0.2236-0.5,0.5s0.2236,0.5,0.5,0.5h17.252c0.2764,0,0.5-0.2236,0.5-0.5   S45.3784,54.1153,45.1021,54.1153z"/><path d="M45.1021,58.7843H9.1069c-0.2764,0-0.5,0.2236-0.5,0.5s0.2236,0.5,0.5,0.5h35.9951c0.2764,0,0.5-0.2236,0.5-0.5   S45.3784,58.7843,45.1021,58.7843z"/><path d="M45.1021,26.0675H9.1069c-0.2764,0-0.5,0.2236-0.5,0.5s0.2236,0.5,0.5,0.5h35.9951c0.2764,0,0.5-0.2236,0.5-0.5   S45.3784,26.0675,45.1021,26.0675z"/><path d="M9.1069,55.1105h14.0264c0.2764,0,0.5-0.2236,0.5-0.5V35.92c0-0.2764-0.2236-0.5-0.5-0.5H9.1069   c-0.2764,0-0.5,0.2236-0.5,0.5v18.6904C8.6069,54.8868,8.8306,55.1105,9.1069,55.1105z M9.6069,36.42h13.0264v17.6904H9.6069V36.42   z"/><path d="M55.7134,59.9649c0.2764,0,0.5-0.2236,0.5-0.5V34.3507c0-0.2764-0.2236-0.5-0.5-0.5s-0.5,0.2236-0.5,0.5v25.1143   C55.2134,59.7413,55.437,59.9649,55.7134,59.9649z"/></g></svg>