<svg xmlns="http://www.w3.org/2000/svg" xmlns:xlink="http://www.w3.org/1999/xlink" version="1.1" x="0px" y="0px" viewBox="0 0 100 125" style="enable-background:new 0 0 100 100;" xml:space="preserve"><g><path d="M50,16.574l-5.437-3l-5.437,3l-5.437-3l-8.437,4.655v63.542l8.437,4.655l5.437-3l5.437,3l5.437-3l5.437,3l5.437-3l5.437,3   l8.437-4.655V18.229l-8.437-4.655l-5.437,3l-5.437-3L50,16.574z M66.31,20.426l2.437,1.345v56.458l-2.437,1.345l-5.437-3l-5.437,3   l-5.437-3l-5.437,3l-5.437-3l-5.437,3l-2.437-1.345V21.771l2.437-1.345l5.437,3l5.437-3l5.437,3l5.437-3l5.437,3L66.31,20.426z"/><rect x="37.254" y="29" width="25.492" height="6"/><rect x="37.254" y="41" width="25.492" height="6"/><rect x="47" y="65" width="15.746" height="6"/></g></svg>