<svg xmlns="http://www.w3.org/2000/svg" xmlns:xlink="http://www.w3.org/1999/xlink" version="1.1" x="0px" y="0px" viewBox="0 0 100 125" enable-background="new 0 0 100 100" xml:space="preserve"><g><g><g><g><path d="M26.2,70.8h5.2h34.8h5.2h11.4c1.3,0,2.4-1.1,2.4-2.4V21c0-1.3-1.1-2.4-2.4-2.4H13.9c-1.3,0-2.4,1.1-2.4,2.4v47.3      c0,1.3,1.1,2.4,2.4,2.4H26.2z M13.9,75.5c-3.9,0-7.2-3.2-7.2-7.2V21c0-4,3.2-7.2,7.2-7.2h68.9c4,0,7.2,3.2,7.2,7.2v47.3      c0,3.9-3.2,7.2-7.2,7.2h-9.9h-5H57.3v7.3h10.6c0.5,0,0.9,0.4,0.9,0.9v1.4c0,0.5-0.4,0.9-0.9,0.9H28.8c-0.5,0-0.9-0.4-0.9-0.9      v-1.4c0-0.5,0.4-0.9,0.9-0.9h10.6v-7.3h-9.7h-5H13.9z"/></g></g></g></g><g><g><g><g><g><path d="M63.8,63.2H32.9c-1.7,0-3.2-1.1-3.8-2.7C29,60.1,29,59.7,29,59.3V30.2c0-2.2,1.8-3.9,3.9-3.9h30.9       c2.2,0,3.9,1.8,3.9,3.9v29.1c0,0.4-0.1,0.8-0.2,1.2C67,62.1,65.5,63.2,63.8,63.2z M34.3,59.6l28.1,0l-10-13.2l-2.7,2.1       c-0.9,0.7-1.9,0.6-2.7,0l-2.7-2.1L34.3,59.6z M55.3,44.1L64,55.6V37.2C61.1,39.5,58.2,41.8,55.3,44.1z M32.6,37.2v18.4       l8.7-11.5C38.5,41.9,35.6,39.5,32.6,37.2z M32.6,31.9l15.7,12.5c0.8-0.6,1.6-1.3,2.4-1.9c2.5-2,5.1-4,7.6-6       c1.9-1.5,3.8-3,5.7-4.5v-1.8c0-0.1-0.1-0.3-0.3-0.3H32.9c-0.2,0-0.3,0.1-0.3,0.3V31.9z"/></g></g></g></g></g></svg>