<svg xmlns="http://www.w3.org/2000/svg" xmlns:xlink="http://www.w3.org/1999/xlink" version="1.1" x="0px" y="0px" viewBox="0 0 34 42.5" enable-background="new 0 0 34 34" xml:space="preserve"><g><path d="M4,31h15.8c1.4,1.2,3.2,2,5.2,2c4.4,0,7.9-3.5,7.9-7.9s-3.5-7.9-7.9-7.9c-0.3,0-0.7,0-1,0.1V4c0-1.7-1.3-3-3-3H4   C2.4,1,1,2.3,1,4v24C1,29.7,2.4,31,4,31z M31,25.1c0,3.3-2.6,5.9-5.9,5.9s-5.9-2.6-5.9-5.9c0-2.7,2.1-5.9,5.9-5.9   C28.3,19.2,31,21.8,31,25.1z M3,4c0-0.6,0.4-1,1-1h17c0.6,0,1,0.4,1,1v13.8c-0.7,0.3-1.4,0.7-2,1.2c0-0.5-0.4-1-1-1H6   c-0.6,0-1,0.4-1,1s0.4,1,1,1h13c-0.5,0.6-0.9,1.3-1.2,2H6c-0.6,0-1,0.4-1,1s0.4,1,1,1h11.2c-0.1,0.4-0.1,0.7-0.1,1.1   c0,1.4,0.4,2.7,1,3.9H4c-0.6,0-1-0.4-1-1V4z"/><path d="M23.4,27.7c0.2,0.2,0.5,0.3,0.7,0.3s0.5-0.1,0.7-0.3l4-4c0.4-0.4,0.4-1,0-1.4s-1-0.4-1.4,0l-3.3,3.3l-1.3-1.3   c-0.4-0.4-1-0.4-1.4,0s-0.4,1,0,1.4L23.4,27.7z"/><path d="M6,8h8c0.6,0,1-0.4,1-1s-0.4-1-1-1H6C5.5,6,5,6.4,5,7S5.5,8,6,8z"/><path d="M6,12h13c0.6,0,1-0.4,1-1s-0.4-1-1-1H6c-0.6,0-1,0.4-1,1S5.5,12,6,12z"/><path d="M6,16h13c0.6,0,1-0.4,1-1s-0.4-1-1-1H6c-0.6,0-1,0.4-1,1S5.5,16,6,16z"/></g><</svg>