<svg xmlns="http://www.w3.org/2000/svg" xmlns:xlink="http://www.w3.org/1999/xlink" version="1.1" x="0px" y="0px" viewBox="0 0 100 125" enable-background="new 0 0 100 100" xml:space="preserve"><path d="M51.68,33.256c-0.222-0.227-0.22-4.61,0.004-4.831c0,0,4.49-2.628,4.533-2.669c0.718-0.696,1.047-1.983,0.75-2.93  c-0.006-0.021-0.014-0.041-0.022-0.061l-1.567-3.786c-0.008-0.019-0.016-0.037-0.026-0.056c-0.454-0.88-1.578-1.569-2.582-1.569  c-0.064,0-5.181,1.368-5.181,1.368c-0.439-0.075-3.323-3.231-3.336-3.419c0,0,1.317-5.024,1.317-5.083  c0.016-1-0.662-2.139-1.542-2.593c-0.018-0.009-0.036-0.018-0.055-0.026l-3.773-1.567c-0.02-0.008-0.04-0.015-0.06-0.022  c-0.922-0.292-2.251,0.053-2.925,0.75c-0.041,0.042-2.668,4.536-2.668,4.536c-0.229,0.222-4.546,0.235-4.833-0.013  c0,0-2.619-4.481-2.66-4.523c-0.673-0.697-2-1.04-2.924-0.751c-0.02,0.007-0.041,0.014-0.061,0.022l-3.773,1.567  c-0.019,0.008-0.037,0.016-0.055,0.025c-0.88,0.454-1.558,1.593-1.542,2.593c0.001,0.059,1.321,5.096,1.321,5.096  c-0.004,0.114-2.969,3.347-3.355,3.402c0,0-5.123-1.363-5.188-1.363c-0.981,0-2.105,0.689-2.559,1.569  c-0.009,0.019-0.018,0.038-0.026,0.057L7.329,22.78c-0.008,0.019-0.015,0.039-0.022,0.059c-0.299,0.952,0.035,2.242,0.762,2.935  c0.033,0.032,4.54,2.959,4.54,2.959c0.211,0.24,0.215,4.25-0.029,4.53c0,0-4.481,2.619-4.524,2.66  c-0.718,0.695-1.047,1.979-0.75,2.924c0.007,0.021,0.014,0.041,0.023,0.061l1.567,3.773c0.008,0.019,0.016,0.037,0.025,0.055  c0.447,0.865,1.572,1.542,2.591,1.542c0.001,0,5.099-1.322,5.099-1.322c0.405,0.004,3.396,3.238,3.408,3.426  c0,0-1.317,5.024-1.317,5.083c-0.016,1,0.662,2.139,1.542,2.593c0.018,0.009,0.036,0.018,0.055,0.026l3.773,1.567  c0.02,0.008,0.04,0.015,0.06,0.022c0.922,0.292,2.25-0.053,2.925-0.75c0.041-0.042,2.668-4.537,2.668-4.537  c0.229-0.222,4.543-0.235,4.833,0.014c0,0,2.619,4.481,2.66,4.523c0.505,0.522,1.356,0.86,2.168,0.86  c0.271,0,0.526-0.037,0.757-0.11c0.02-0.006,0.04-0.014,0.06-0.022l3.773-1.567c0.019-0.008,0.037-0.016,0.055-0.026  c0.88-0.454,1.558-1.593,1.542-2.593c-0.001-0.059-1.321-5.097-1.321-5.097c0.003-0.113,2.994-3.399,3.413-3.412  c0,0,5.047,1.321,5.11,1.321c0.999,0,2.131-0.677,2.578-1.542c0.009-0.018,0.018-0.036,0.025-0.055l1.567-3.773  c0.009-0.02,0.016-0.041,0.023-0.062c0.296-0.944-0.033-2.228-0.75-2.923C56.174,35.883,51.68,33.256,51.68,33.256z M31.974,44.188  c-7.127,0-12.925-5.799-12.925-12.926c0-7.128,5.798-12.926,12.925-12.926c7.128,0,12.926,5.799,12.926,12.926  C44.9,38.389,39.102,44.188,31.974,44.188z M88.575,65.503c-0.174-0.178-0.172-3.611,0.003-3.785c0,0,3.518-2.059,3.551-2.091  c0.562-0.545,0.821-1.553,0.588-2.295c-0.005-0.016-0.011-0.032-0.017-0.048l-1.228-2.966c-0.006-0.015-0.013-0.029-0.02-0.044  c-0.356-0.689-1.237-1.229-2.023-1.229c-0.05,0-4.059,1.071-4.059,1.071c-0.344-0.059-2.604-2.531-2.613-2.678  c0,0,1.032-3.936,1.032-3.983c0.012-0.783-0.518-1.676-1.208-2.031c-0.014-0.007-0.028-0.014-0.043-0.02l-2.956-1.227  c-0.016-0.006-0.031-0.012-0.047-0.017c-0.723-0.229-1.764,0.041-2.292,0.588c-0.032,0.033-2.09,3.554-2.09,3.554  c-0.179,0.174-3.561,0.184-3.786-0.01c0,0-2.052-3.511-2.084-3.544c-0.527-0.546-1.567-0.815-2.291-0.589  c-0.016,0.005-0.032,0.011-0.048,0.018l-2.956,1.228c-0.015,0.006-0.029,0.013-0.043,0.02c-0.69,0.356-1.221,1.248-1.208,2.031  c0,0.046,1.035,3.992,1.035,3.992c-0.003,0.089-2.326,2.622-2.628,2.665c0,0-4.014-1.068-4.064-1.068  c-0.768,0-1.649,0.54-2.005,1.229c-0.007,0.015-0.014,0.029-0.021,0.045l-1.227,2.976c-0.006,0.015-0.012,0.031-0.017,0.046  c-0.235,0.746,0.027,1.756,0.597,2.3c0.026,0.025,3.557,2.318,3.557,2.318c0.165,0.188,0.168,3.33-0.023,3.549  c0,0-3.511,2.052-3.544,2.084c-0.562,0.545-0.82,1.551-0.587,2.291c0.005,0.016,0.011,0.032,0.018,0.048l1.227,2.956  c0.006,0.015,0.013,0.029,0.02,0.043c0.35,0.677,1.231,1.208,2.03,1.208l3.995-1.036c0.317,0.003,2.66,2.537,2.67,2.684  c0,0-1.032,3.936-1.032,3.983c-0.012,0.783,0.518,1.676,1.208,2.031c0.014,0.007,0.028,0.014,0.043,0.02l2.956,1.227  c0.016,0.006,0.031,0.012,0.047,0.017c0.723,0.229,1.763-0.042,2.292-0.587c0.032-0.033,2.09-3.554,2.09-3.554  c0.179-0.174,3.56-0.184,3.786,0.011c0,0,2.052,3.51,2.084,3.544c0.396,0.409,1.062,0.674,1.699,0.674  c0.213,0,0.412-0.029,0.593-0.086c0.016-0.005,0.032-0.011,0.047-0.017l2.956-1.227c0.015-0.006,0.029-0.013,0.043-0.02  c0.69-0.356,1.22-1.248,1.208-2.031c0-0.046-1.035-3.993-1.035-3.993c0.003-0.088,2.345-2.663,2.674-2.673  c0,0,3.954,1.035,4.003,1.035c0.783,0,1.67-0.531,2.02-1.208c0.007-0.014,0.014-0.028,0.02-0.043l1.228-2.956  c0.007-0.016,0.013-0.032,0.018-0.048c0.232-0.74-0.026-1.746-0.588-2.29C92.096,67.56,88.575,65.503,88.575,65.503z M73.136,74.067  c-5.584,0-10.126-4.543-10.126-10.127c0-5.584,4.543-10.127,10.126-10.127c5.584,0,10.127,4.543,10.127,10.127  C83.263,69.524,78.72,74.067,73.136,74.067z M44.384,79.973c-0.139-0.142-0.138-2.889,0.002-3.027c0,0,2.814-1.647,2.841-1.673  c0.45-0.436,0.656-1.242,0.47-1.836c-0.004-0.013-0.009-0.026-0.014-0.038l-0.982-2.372c-0.005-0.012-0.01-0.023-0.016-0.035  c-0.284-0.551-0.989-0.983-1.618-0.983c-0.04,0-3.246,0.857-3.246,0.857c-0.275-0.047-2.083-2.025-2.09-2.142  c0,0,0.825-3.148,0.826-3.186c0.01-0.627-0.415-1.34-0.966-1.625c-0.011-0.006-0.023-0.011-0.034-0.016l-2.364-0.982  c-0.012-0.005-0.025-0.01-0.038-0.014c-0.578-0.183-1.411,0.033-1.833,0.47c-0.026,0.027-1.672,2.843-1.672,2.843  c-0.143,0.139-2.849,0.147-3.028-0.008c0,0-1.641-2.808-1.667-2.835c-0.422-0.437-1.253-0.652-1.832-0.471  c-0.013,0.004-0.026,0.009-0.038,0.014l-2.364,0.982c-0.012,0.005-0.023,0.01-0.034,0.016c-0.552,0.284-0.976,0.998-0.966,1.625  c0,0.037,0.828,3.193,0.828,3.193c-0.003,0.071-1.861,2.097-2.102,2.132c0,0-3.211-0.854-3.251-0.854  c-0.615,0-1.319,0.432-1.604,0.983c-0.006,0.012-0.011,0.024-0.016,0.036l-0.982,2.381c-0.005,0.012-0.01,0.024-0.014,0.037  c-0.188,0.597,0.022,1.405,0.478,1.839c0.021,0.02,2.845,1.854,2.845,1.854c0.132,0.151,0.135,2.663-0.018,2.839  c0,0-2.808,1.641-2.835,1.667c-0.45,0.436-0.656,1.24-0.47,1.832c0.004,0.013,0.009,0.026,0.014,0.038l0.982,2.364  c0.005,0.012,0.01,0.023,0.016,0.035c0.28,0.542,0.985,0.966,1.623,0.966c0,0,3.196-0.828,3.196-0.828  c0.254,0.003,2.128,2.029,2.136,2.147c0,0-0.825,3.148-0.826,3.186c-0.01,0.627,0.415,1.34,0.966,1.625  c0.011,0.006,0.023,0.011,0.034,0.016l2.364,0.982c0.012,0.005,0.025,0.01,0.038,0.014c0.578,0.183,1.41-0.033,1.833-0.47  c0.026-0.027,1.672-2.843,1.672-2.843c0.143-0.139,2.847-0.147,3.028,0.009c0,0,1.641,2.808,1.667,2.834  c0.317,0.327,0.85,0.539,1.359,0.539c0.17,0,0.329-0.023,0.474-0.069c0.013-0.004,0.025-0.009,0.038-0.014l2.364-0.982  c0.012-0.005,0.023-0.01,0.034-0.016c0.552-0.285,0.976-0.998,0.966-1.625c0-0.037-0.828-3.194-0.828-3.194  c0.002-0.071,1.876-2.13,2.139-2.138c0,0,3.163,0.828,3.202,0.828c0.626,0,1.336-0.424,1.616-0.966  c0.005-0.011,0.011-0.023,0.016-0.035l0.982-2.364c0.005-0.013,0.01-0.025,0.014-0.039c0.186-0.592-0.021-1.396-0.47-1.832  C47.2,81.619,44.384,79.973,44.384,79.973z M32.035,86.824c-4.466,0-8.1-3.634-8.1-8.1c0-4.466,3.634-8.1,8.1-8.1  c4.466,0,8.1,3.634,8.1,8.1C40.135,83.19,36.501,86.824,32.035,86.824z"/></svg>