<svg xmlns="http://www.w3.org/2000/svg" xmlns:xlink="http://www.w3.org/1999/xlink" version="1.1" x="0px" y="0px" viewBox="0 0 100 125" enable-background="new 0 0 100 100" xml:space="preserve"><g><path fill="#000000" d="M67.681,7.699h-0.039c-1.103,0-1.974,0.89-1.974,1.992c0,1.101,0.914,1.992,2.013,1.992   c1.103,0,1.991-0.891,1.991-1.992C69.672,8.589,68.783,7.699,67.681,7.699z"/><path fill="#000000" d="M68.151,1.833H32.301c-4.912,0-8.908,3.996-8.908,8.908v75.685c0,4.912,3.996,8.908,8.908,8.908h35.851   c4.91,0,8.906-3.996,8.906-8.908V10.741C77.058,5.829,73.062,1.833,68.151,1.833z M75.177,86.426c0,3.873-3.152,7.026-7.025,7.026   H32.301c-3.874,0-7.026-3.153-7.026-7.026v-4.316h49.902V86.426z M75.177,80.227H25.275V17.657h49.902V80.227z M75.177,15.774   H25.275v-5.033c0-3.874,3.152-7.025,7.026-7.025h35.851c3.873,0,7.025,3.151,7.025,7.025V15.774z"/><path fill="#000000" d="M45.862,89.301h7.976c1.102,0,1.994-0.892,1.994-1.994c0-1.102-0.894-1.992-1.994-1.992h-7.976   c-1.101,0-1.994,0.891-1.994,1.992C43.868,88.409,44.761,89.301,45.862,89.301z"/><path fill="#000000" d="M30.757,49.44l8.662,6.188c-0.042,0.113-0.073,0.232-0.073,0.36v11.482c0,0.435,0.267,0.824,0.672,0.98   c0.123,0.047,0.251,0.07,0.378,0.07c0.291,0,0.575-0.121,0.778-0.346l6.368-7.027l8.968,6.391c0.18,0.128,0.394,0.195,0.609,0.195   c0.103,0,0.205-0.016,0.306-0.046c0.312-0.095,0.562-0.328,0.677-0.633l11.854-31.338c0.118-0.175,0.173-0.375,0.173-0.583   c0.039-0.368-0.109-0.737-0.421-0.961c-0.386-0.277-0.911-0.262-1.278,0.041l-0.095,0.077L31.015,47.597   c-0.369,0.131-0.634,0.457-0.688,0.844C30.273,48.828,30.438,49.213,30.757,49.44z M41.446,64.747v-7.671l0.792,0.565   c0.183,0.131,0.397,0.196,0.61,0.196c0.013,0,0.026-0.006,0.04-0.007l2.932,2.09L41.446,64.747z M56.619,65.037l-11.868-8.458   l21.901-18.068L56.619,65.037z M63.509,38.242L42.627,55.338L33.614,48.9L63.509,38.242z"/></g></svg>